<?xml version="1.0" encoding="utf-8"?>
<!-- Generator: Adobe Illustrator 16.0.4, SVG Export Plug-In . SVG Version: 6.00 Build 0)  -->
<!DOCTYPE svg PUBLIC "-//W3C//DTD SVG 1.1//EN" "http://www.w3.org/Graphics/SVG/1.1/DTD/svg11.dtd">
<svg version="1.1" id="Layer_2" xmlns="http://www.w3.org/2000/svg" xmlns:xlink="http://www.w3.org/1999/xlink" x="0px" y="0px"
	 width="2000px" height="800px" viewBox="0 0 2000 800" enable-background="new 0 0 2000 800" xml:space="preserve">
<g id="Black_Key_Bb">
	<g id="background_x2B_bevel">
		<path fill="#0F0F0F" d="M231.5,462.883c0,8.349-5.373,15.117-12,15.117h-76c-6.627,0-12-6.769-12-15.117V41h100V462.883z"/>
		<linearGradient id="SVGID_1_" gradientUnits="userSpaceOnUse" x1="181.5" y1="478" x2="181.5" y2="41.0005">
			<stop  offset="0" style="stop-color:#4B4B4B"/>
			<stop  offset="1" style="stop-color:#0F0F0F"/>
		</linearGradient>
		<path fill="url(#SVGID_1_)" d="M229.5,43v419.883c0,7.232-4.486,13.117-10,13.117h-76c-5.514,0-10-5.885-10-13.117V43H229.5
			 M231.5,41h-100v421.883c0,8.349,5.373,15.117,12,15.117h76c6.627,0,12-6.769,12-15.117V41L231.5,41z"/>
	</g>
	<linearGradient id="front_side_3_" gradientUnits="userSpaceOnUse" x1="181.5" y1="466" x2="181.5" y2="411">
		<stop  offset="0" style="stop-color:#4B4B4B"/>
		<stop  offset="0.3" style="stop-color:#2D2D2D"/>
		<stop  offset="0.4357" style="stop-color:#363636"/>
		<stop  offset="0.6569" style="stop-color:#4E4E4E"/>
		<stop  offset="0.9346" style="stop-color:#767676"/>
		<stop  offset="1" style="stop-color:#808080"/>
	</linearGradient>
	<path id="front_side_1_" fill="url(#front_side_3_)" d="M201.93,411c6.692,0,11.325,5.232,12,12c1.239,12.433,2.36,24.985,3,33
		c0.56,7.016-0.308,10-7,10H153.07c-6.692,0-7.56-2.984-7-10c0.64-8.015,1.761-20.567,3-33c0.675-6.768,5.308-12,12-12H201.93z"/>
	<g id="rim_stroke">
		<linearGradient id="SVGID_2_" gradientUnits="userSpaceOnUse" x1="181.5" y1="44" x2="181.5" y2="471.2251">
			<stop  offset="0" style="stop-color:#323232;stop-opacity:0"/>
			<stop  offset="0.0069" style="stop-color:#323232;stop-opacity:0.1375"/>
			<stop  offset="0.05" style="stop-color:#323232"/>
			<stop  offset="1" style="stop-color:#3C3C3C"/>
		</linearGradient>
		<path fill="url(#SVGID_2_)" d="M224,46v410.375c0,7.097-4.567,12.85-10.2,12.85h-64.6c-5.633,0-10.2-5.753-10.2-12.85V46H224
			 M226,44h-2h-85h-2v2v410.375c0,8.188,5.473,14.85,12.2,14.85h64.6c6.727,0,12.2-6.661,12.2-14.85V46V44L226,44z"/>
	</g>
	<g id="top_side_1_">
		<linearGradient id="SVGID_3_" gradientUnits="userSpaceOnUse" x1="181.5" y1="405" x2="181.5" y2="44.0005">
			<stop  offset="0" style="stop-color:#808080"/>
			<stop  offset="1" style="stop-color:#323232"/>
		</linearGradient>
		<path fill="url(#SVGID_3_)" d="M219,392.77c0,6.755-5.475,12.23-12.229,12.23h-50.541c-6.754,0-12.229-5.476-12.229-12.23V44h75
			V392.77z"/>
		<linearGradient id="SVGID_4_" gradientUnits="userSpaceOnUse" x1="181.5" y1="405" x2="181.5" y2="44.0005">
			<stop  offset="0" style="stop-color:#646464"/>
			<stop  offset="1" style="stop-color:#414141"/>
		</linearGradient>
		<path fill="url(#SVGID_4_)" d="M217,46v346.77c0,5.641-4.589,10.23-10.229,10.23h-50.541c-5.641,0-10.229-4.589-10.229-10.23V46
			H217 M219,44h-75v348.77c0,6.755,5.475,12.23,12.229,12.23h50.541c6.754,0,12.229-5.476,12.229-12.23V44L219,44z"/>
	</g>
	<polygon id="corner_right_1_" fill="#505050" points="151,410.25 146,414.667 146,403.5 151,406.75 	"/>
	<polygon id="corner_left_1_" fill="#505050" points="212,410.25 217,414.667 217,403.5 212,406.75 	"/>
</g>
<g id="White_Key_B">
	<g id="white_key_2_1_">
		
			<linearGradient id="SVGID_5_" gradientUnits="userSpaceOnUse" x1="945.5005" y1="762.001" x2="945.5004" y2="41" gradientTransform="matrix(-1 0 0 1 1202 0)">
			<stop  offset="0" style="stop-color:#EBEBEB"/>
			<stop  offset="1" style="stop-color:#FFFFFF"/>
		</linearGradient>
		<path fill="url(#SVGID_5_)" d="M336.5,41v699c0,12.15-9.85,22-22,22h-116c-12.15,0-22-9.85-22-22V484.5c0-3.59,2.91-6.5,6.5-6.5
			h36.5c6.627,0,12-6.769,12-15.117V41H336.5z"/>
		<linearGradient id="SVGID_6_" gradientUnits="userSpaceOnUse" x1="256.5" y1="762" x2="256.5001" y2="41.0005">
			<stop  offset="0" style="stop-color:#B4B4B4"/>
			<stop  offset="1" style="stop-color:#F0F0F0"/>
		</linearGradient>
		<path fill="url(#SVGID_6_)" d="M334.5,43v697c0,11.028-8.972,20-20,20h-116c-11.028,0-20-8.972-20-20V484.5
			c0-2.481,2.019-4.5,4.5-4.5h36.5c7.72,0,14-7.679,14-17.117V43H334.5 M336.5,41h-105v421.883c0,8.349-5.373,15.117-12,15.117H183
			c-3.59,0-6.5,2.91-6.5,6.5V740c0,12.15,9.85,22,22,22h116c12.15,0,22-9.85,22-22V41L336.5,41z"/>
	</g>
	<g id="top_shadow_8_">
		
			<linearGradient id="SVGID_7_" gradientUnits="userSpaceOnUse" x1="918" y1="72.9995" x2="918" y2="40.9995" gradientTransform="matrix(-1 0 0 1 1202 0)">
			<stop  offset="0" style="stop-color:#FFFFFF;stop-opacity:0"/>
			<stop  offset="1" style="stop-color:#262626"/>
		</linearGradient>
		<rect x="231.5" y="41" fill="url(#SVGID_7_)" width="105" height="32"/>
		<linearGradient id="SVGID_8_" gradientUnits="userSpaceOnUse" x1="284" y1="73" x2="284" y2="41">
			<stop  offset="0" style="stop-color:#FFFFFF;stop-opacity:0"/>
			<stop  offset="1" style="stop-color:#404040"/>
		</linearGradient>
		<path fill="url(#SVGID_8_)" d="M334.5,43v28h-101V43H334.5 M336.5,41h-105v32h105V41L336.5,41z"/>
	</g>
</g>
<g id="White_Key_C">
	<g id="white_key_2">
		<linearGradient id="SVGID_9_" gradientUnits="userSpaceOnUse" x1="421" y1="762" x2="421" y2="41.0005">
			<stop  offset="0" style="stop-color:#EBEBEB"/>
			<stop  offset="1" style="stop-color:#FFFFFF"/>
		</linearGradient>
		<path fill="url(#SVGID_9_)" d="M341,41v699c0,12.15,9.85,22,22,22h116c12.15,0,22-9.85,22-22V484.5c0-3.59-2.91-6.5-6.5-6.5H458
			c-6.627,0-12-6.769-12-15.117V41H341z"/>
		<linearGradient id="SVGID_10_" gradientUnits="userSpaceOnUse" x1="421" y1="762" x2="421" y2="41.0005">
			<stop  offset="0" style="stop-color:#B4B4B4"/>
			<stop  offset="1" style="stop-color:#F0F0F0"/>
		</linearGradient>
		<path fill="url(#SVGID_10_)" d="M444,43v419.883c0,9.438,6.28,17.117,14,17.117h36.5c2.481,0,4.5,2.019,4.5,4.5V740
			c0,11.028-8.972,20-20,20H363c-11.028,0-20-8.972-20-20V43H444 M446,41H341v699c0,12.15,9.85,22,22,22h116c12.15,0,22-9.85,22-22
			V484.5c0-3.59-2.91-6.5-6.5-6.5H458c-6.627,0-12-6.769-12-15.117V41L446,41z"/>
	</g>
	<g id="top_shadow_1_">
		<linearGradient id="SVGID_11_" gradientUnits="userSpaceOnUse" x1="393.5" y1="73" x2="393.5" y2="41">
			<stop  offset="0" style="stop-color:#FFFFFF;stop-opacity:0"/>
			<stop  offset="1" style="stop-color:#262626"/>
		</linearGradient>
		<rect x="341" y="41" fill="url(#SVGID_11_)" width="105" height="32"/>
		<linearGradient id="SVGID_12_" gradientUnits="userSpaceOnUse" x1="393.5" y1="73" x2="393.5" y2="41">
			<stop  offset="0" style="stop-color:#FFFFFF;stop-opacity:0"/>
			<stop  offset="1" style="stop-color:#404040"/>
		</linearGradient>
		<path fill="url(#SVGID_12_)" d="M444,43v28H343V43H444 M446,41H341v32h105V41L446,41z"/>
	</g>
</g>
<g id="Black_Key_Db_Pressed">
	<g id="background_x2B_bevel_1_">
		<path fill="#0F0F0F" d="M546,462.883c0,8.349-5.373,15.117-12,15.117h-76c-6.627,0-12-6.769-12-15.117V41h100V462.883z"/>
		<linearGradient id="SVGID_13_" gradientUnits="userSpaceOnUse" x1="496" y1="478" x2="496" y2="41.0005">
			<stop  offset="0" style="stop-color:#4B4B4B"/>
			<stop  offset="1" style="stop-color:#0F0F0F"/>
		</linearGradient>
		<path fill="url(#SVGID_13_)" d="M544,43v419.883c0,7.232-4.486,13.117-10,13.117h-76c-5.514,0-10-5.885-10-13.117V43H544 M546,41
			H446v421.883c0,8.349,5.373,15.117,12,15.117h76c6.627,0,12-6.769,12-15.117V41L546,41z"/>
	</g>
	<g id="front_side_4_">
		<linearGradient id="SVGID_14_" gradientUnits="userSpaceOnUse" x1="496" y1="471.9502" x2="496" y2="438">
			<stop  offset="0" style="stop-color:#1E1E1E"/>
			<stop  offset="0.65" style="stop-color:#464646"/>
			<stop  offset="1" style="stop-color:#323232"/>
		</linearGradient>
		<path fill="url(#SVGID_14_)" d="M516.43,438c6.692,0,11.325,5.232,12,12c0.723,7.251,1.976,21.95,1.976,21.95h-68.811
			c0,0,1.253-14.699,1.976-21.95c0.675-6.768,5.308-12,12-12H516.43z"/>
		<linearGradient id="SVGID_15_" gradientUnits="userSpaceOnUse" x1="496" y1="471.9502" x2="496" y2="438">
			<stop  offset="0" style="stop-color:#1E1E1E;stop-opacity:0"/>
			<stop  offset="0.7" style="stop-color:#1F1F1F;stop-opacity:0"/>
			<stop  offset="0.8391" style="stop-color:#212121;stop-opacity:0.4637"/>
			<stop  offset="0.8982" style="stop-color:#282828;stop-opacity:0.6608"/>
			<stop  offset="0.9422" style="stop-color:#353535;stop-opacity:0.8072"/>
			<stop  offset="0.9784" style="stop-color:#464646;stop-opacity:0.9278"/>
			<stop  offset="1" style="stop-color:#555555"/>
		</linearGradient>
		<path fill="url(#SVGID_15_)" d="M516.43,440c5.379,0,9.401,4.099,10.01,10.198c0.547,5.492,1.41,15.386,1.787,19.752h-64.452
			c0.376-4.366,1.239-14.259,1.787-19.752c0.608-6.1,4.631-10.198,10.01-10.198H516.43 M516.43,438H475.57
			c-6.692,0-11.325,5.232-12,12c-0.723,7.251-1.976,21.95-1.976,21.95h68.811c0,0-1.253-14.699-1.976-21.95
			C527.755,443.232,523.122,438,516.43,438L516.43,438z"/>
	</g>
	<g id="rim_stroke_1_">
		<linearGradient id="SVGID_16_" gradientUnits="userSpaceOnUse" x1="496" y1="44" x2="496" y2="473.2251">
			<stop  offset="0" style="stop-color:#323232;stop-opacity:0"/>
			<stop  offset="0.0069" style="stop-color:#323232;stop-opacity:0.1375"/>
			<stop  offset="0.05" style="stop-color:#323232"/>
			<stop  offset="1" style="stop-color:#3C3C3C"/>
		</linearGradient>
		<path fill="url(#SVGID_16_)" d="M538.5,46v412.375c0,7.097-4.567,12.85-10.2,12.85h-64.6c-5.633,0-10.2-5.753-10.2-12.85V46H538.5
			 M540.5,44h-2h-85h-2v2v412.375c0,8.188,5.473,14.85,12.2,14.85h64.6c6.727,0,12.2-6.661,12.2-14.85V46V44L540.5,44z"/>
	</g>
	<g id="top_side_7_">
		<linearGradient id="SVGID_17_" gradientUnits="userSpaceOnUse" x1="496" y1="432" x2="496" y2="48.0005">
			<stop  offset="0" style="stop-color:#4B4B4B"/>
			<stop  offset="1" style="stop-color:#323232"/>
		</linearGradient>
		<path fill="url(#SVGID_17_)" d="M533.5,419.77c0,6.755-5.475,12.23-12.229,12.23h-50.541c-6.754,0-12.229-5.476-12.229-12.23V48
			h75V419.77z"/>
		<linearGradient id="SVGID_18_" gradientUnits="userSpaceOnUse" x1="496" y1="432" x2="496" y2="48.0005">
			<stop  offset="0" style="stop-color:#323232"/>
			<stop  offset="0.1" style="stop-color:#5A5A5A"/>
			<stop  offset="1" style="stop-color:#4B4B4B"/>
		</linearGradient>
		<path fill="url(#SVGID_18_)" d="M531.5,50v369.77c0,5.641-4.589,10.23-10.229,10.23h-50.541c-5.641,0-10.229-4.59-10.229-10.23V50
			H531.5 M533.5,48h-75v371.77c0,6.755,5.475,12.23,12.229,12.23h50.541c6.754,0,12.229-5.476,12.229-12.23V48L533.5,48z"/>
	</g>
	<polygon id="corner_right_3_" fill="#414141" points="466,438.149 461,442.501 461,431.5 466,434.701 	"/>
	<polygon id="corner_left_3_" fill="#414141" points="526,438.147 531,442.498 531,431.497 526,434.699 	"/>
</g>
<g id="White_Key_D">
	<g id="white_key_D">
		
			<linearGradient id="SVGID_19_" gradientUnits="userSpaceOnUse" x1="616" y1="762.001" x2="615.9999" y2="41" gradientTransform="matrix(-1 0 0 1 1202 0)">
			<stop  offset="0" style="stop-color:#EBEBEB"/>
			<stop  offset="1" style="stop-color:#FFFFFF"/>
		</linearGradient>
		<path fill="url(#SVGID_19_)" d="M528,762c-12.15,0-22-9.85-22-22V484.5c0-3.59,2.91-6.5,6.5-6.5H534c6.627,0,12-6.769,12-15.117
			V41h80v421.883c0,8.349,5.373,15.117,12,15.117h21.5c3.59,0,6.5,2.91,6.5,6.5V740c0,12.15-9.85,22-22,22H528z"/>
		<linearGradient id="SVGID_20_" gradientUnits="userSpaceOnUse" x1="586" y1="762" x2="586.0001" y2="41.0005">
			<stop  offset="0" style="stop-color:#B4B4B4"/>
			<stop  offset="1" style="stop-color:#F0F0F0"/>
		</linearGradient>
		<path fill="url(#SVGID_20_)" d="M624,43v419.883c0,9.438,6.28,17.117,14,17.117h21.5c2.481,0,4.5,2.019,4.5,4.5V740
			c0,11.028-8.972,20-20,20H528c-11.028,0-20-8.972-20-20V484.5c0-2.481,2.019-4.5,4.5-4.5H534c7.72,0,14-7.679,14-17.117V43H624
			 M626,41h-80v421.883c0,8.349-5.373,15.117-12,15.117h-21.5c-3.59,0-6.5,2.91-6.5,6.5V740c0,12.15,9.85,22,22,22h116
			c12.15,0,22-9.85,22-22V484.5c0-3.59-2.91-6.5-6.5-6.5H638c-6.627,0-12-6.769-12-15.117V41L626,41z"/>
	</g>
	<g id="top_shadow_5_">
		<linearGradient id="SVGID_21_" gradientUnits="userSpaceOnUse" x1="586" y1="73" x2="586" y2="41">
			<stop  offset="0" style="stop-color:#FFFFFF;stop-opacity:0"/>
			<stop  offset="1" style="stop-color:#262626"/>
		</linearGradient>
		<rect x="546" y="41" fill="url(#SVGID_21_)" width="80" height="32"/>
		<linearGradient id="SVGID_22_" gradientUnits="userSpaceOnUse" x1="586" y1="73" x2="586" y2="41">
			<stop  offset="0" style="stop-color:#FFFFFF;stop-opacity:0"/>
			<stop  offset="1" style="stop-color:#404040"/>
		</linearGradient>
		<path fill="url(#SVGID_22_)" d="M624,43v28h-76V43H624 M626,41h-80v32h80V41L626,41z"/>
	</g>
</g>
<g id="Black_Key_Eb">
	<g id="background_x2B_bevel_2_">
		<path fill="#0F0F0F" d="M726,462.883c0,8.349-5.373,15.117-12,15.117h-76c-6.627,0-12-6.769-12-15.117V41h100V462.883z"/>
		<linearGradient id="SVGID_23_" gradientUnits="userSpaceOnUse" x1="676" y1="478" x2="676" y2="41.0005">
			<stop  offset="0" style="stop-color:#4B4B4B"/>
			<stop  offset="1" style="stop-color:#0F0F0F"/>
		</linearGradient>
		<path fill="url(#SVGID_23_)" d="M724,43v419.883c0,7.232-4.486,13.117-10,13.117h-76c-5.514,0-10-5.885-10-13.117V43H724 M726,41
			H626v421.883c0,8.349,5.373,15.117,12,15.117h76c6.627,0,12-6.769,12-15.117V41L726,41z"/>
	</g>
	<linearGradient id="front_side_8_" gradientUnits="userSpaceOnUse" x1="676" y1="466" x2="676" y2="411">
		<stop  offset="0" style="stop-color:#4B4B4B"/>
		<stop  offset="0.3" style="stop-color:#2D2D2D"/>
		<stop  offset="0.4357" style="stop-color:#363636"/>
		<stop  offset="0.6569" style="stop-color:#4E4E4E"/>
		<stop  offset="0.9346" style="stop-color:#767676"/>
		<stop  offset="1" style="stop-color:#808080"/>
	</linearGradient>
	<path id="front_side_2_" fill="url(#front_side_8_)" d="M696.43,411c6.692,0,11.325,5.232,12,12c1.239,12.433,2.36,24.985,3,33
		c0.56,7.016-0.308,10-7,10H647.57c-6.692,0-7.56-2.984-7-10c0.64-8.015,1.761-20.567,3-33c0.675-6.768,5.308-12,12-12H696.43z"/>
	<g id="rim_stroke_2_">
		<linearGradient id="SVGID_24_" gradientUnits="userSpaceOnUse" x1="676" y1="44" x2="676" y2="471.2251">
			<stop  offset="0" style="stop-color:#323232;stop-opacity:0"/>
			<stop  offset="0.0069" style="stop-color:#323232;stop-opacity:0.1375"/>
			<stop  offset="0.05" style="stop-color:#323232"/>
			<stop  offset="1" style="stop-color:#3C3C3C"/>
		</linearGradient>
		<path fill="url(#SVGID_24_)" d="M718.5,46v410.375c0,7.097-4.567,12.85-10.2,12.85h-64.6c-5.633,0-10.2-5.753-10.2-12.85V46H718.5
			 M720.5,44h-2h-85h-2v2v410.375c0,8.188,5.473,14.85,12.2,14.85h64.6c6.727,0,12.2-6.661,12.2-14.85V46V44L720.5,44z"/>
	</g>
	<g id="top_side_2_">
		<linearGradient id="SVGID_25_" gradientUnits="userSpaceOnUse" x1="676" y1="405" x2="676" y2="44.0005">
			<stop  offset="0" style="stop-color:#808080"/>
			<stop  offset="1" style="stop-color:#323232"/>
		</linearGradient>
		<path fill="url(#SVGID_25_)" d="M713.5,392.77c0,6.755-5.475,12.23-12.229,12.23h-50.541c-6.754,0-12.229-5.476-12.229-12.23V44
			h75V392.77z"/>
		<linearGradient id="SVGID_26_" gradientUnits="userSpaceOnUse" x1="676" y1="405" x2="676" y2="44.0005">
			<stop  offset="0" style="stop-color:#646464"/>
			<stop  offset="1" style="stop-color:#414141"/>
		</linearGradient>
		<path fill="url(#SVGID_26_)" d="M711.5,46v346.77c0,5.641-4.589,10.23-10.229,10.23h-50.541c-5.641,0-10.229-4.589-10.229-10.23
			V46H711.5 M713.5,44h-75v348.77c0,6.755,5.475,12.23,12.229,12.23h50.541c6.754,0,12.229-5.476,12.229-12.23V44L713.5,44z"/>
	</g>
	<polygon id="corner_right_4_" fill="#505050" points="645.5,410.25 640.5,414.667 640.5,403.5 645.5,406.75 	"/>
	<polygon id="corner_left_4_" fill="#505050" points="706.5,410.25 711.5,414.667 711.5,403.5 706.5,406.75 	"/>
</g>
<g id="White_Key_E">
	<g id="white_key_2_3_">
		
			<linearGradient id="SVGID_27_" gradientUnits="userSpaceOnUse" x1="451" y1="762.001" x2="451" y2="41" gradientTransform="matrix(-1 0 0 1 1202 0)">
			<stop  offset="0" style="stop-color:#EBEBEB"/>
			<stop  offset="1" style="stop-color:#FFFFFF"/>
		</linearGradient>
		<path fill="url(#SVGID_27_)" d="M831,41v699c0,12.15-9.85,22-22,22H693c-12.15,0-22-9.85-22-22V484.5c0-3.59,2.91-6.5,6.5-6.5H714
			c6.627,0,12-6.769,12-15.117V41H831z"/>
		<linearGradient id="SVGID_28_" gradientUnits="userSpaceOnUse" x1="751" y1="762" x2="751.0001" y2="41.0005">
			<stop  offset="0" style="stop-color:#B4B4B4"/>
			<stop  offset="1" style="stop-color:#F0F0F0"/>
		</linearGradient>
		<path fill="url(#SVGID_28_)" d="M829,43v697c0,11.028-8.972,20-20,20H693c-11.028,0-20-8.972-20-20V484.5
			c0-2.481,2.019-4.5,4.5-4.5H714c7.72,0,14-7.679,14-17.117V43H829 M831,41H726v421.883c0,8.349-5.373,15.117-12,15.117h-36.5
			c-3.59,0-6.5,2.91-6.5,6.5V740c0,12.15,9.85,22,22,22h116c12.15,0,22-9.85,22-22V41L831,41z"/>
	</g>
	<g id="top_shadow_7_">
		
			<linearGradient id="SVGID_29_" gradientUnits="userSpaceOnUse" x1="423.5" y1="72.9995" x2="423.5" y2="40.9995" gradientTransform="matrix(-1 0 0 1 1202 0)">
			<stop  offset="0" style="stop-color:#FFFFFF;stop-opacity:0"/>
			<stop  offset="1" style="stop-color:#262626"/>
		</linearGradient>
		<rect x="726" y="41" fill="url(#SVGID_29_)" width="105" height="32"/>
		<linearGradient id="SVGID_30_" gradientUnits="userSpaceOnUse" x1="778.5" y1="73" x2="778.5" y2="41">
			<stop  offset="0" style="stop-color:#FFFFFF;stop-opacity:0"/>
			<stop  offset="1" style="stop-color:#404040"/>
		</linearGradient>
		<path fill="url(#SVGID_30_)" d="M829,43v28H728V43H829 M831,41H726v32h105V41L831,41z"/>
	</g>
</g>
<g id="White_Key_F">
	<g id="white_key_2_4_">
		<linearGradient id="SVGID_31_" gradientUnits="userSpaceOnUse" x1="916" y1="762" x2="915.9999" y2="41.0005">
			<stop  offset="0" style="stop-color:#EBEBEB"/>
			<stop  offset="1" style="stop-color:#FFFFFF"/>
		</linearGradient>
		<path fill="url(#SVGID_31_)" d="M836,41v699c0,12.15,9.85,22,22,22h116c12.15,0,22-9.85,22-22V484.5c0-3.59-2.91-6.5-6.5-6.5H953
			c-6.627,0-12-6.769-12-15.117V41H836z"/>
		<linearGradient id="SVGID_32_" gradientUnits="userSpaceOnUse" x1="916" y1="762" x2="915.9999" y2="41.0005">
			<stop  offset="0" style="stop-color:#B4B4B4"/>
			<stop  offset="1" style="stop-color:#F0F0F0"/>
		</linearGradient>
		<path fill="url(#SVGID_32_)" d="M939,43v419.883c0,9.438,6.28,17.117,14,17.117h36.5c2.481,0,4.5,2.019,4.5,4.5V740
			c0,11.028-8.972,20-20,20H858c-11.028,0-20-8.972-20-20V43H939 M941,41H836v699c0,12.15,9.85,22,22,22h116c12.15,0,22-9.85,22-22
			V484.5c0-3.59-2.91-6.5-6.5-6.5H953c-6.627,0-12-6.769-12-15.117V41L941,41z"/>
	</g>
	<g id="top_shadow_11_">
		<linearGradient id="SVGID_33_" gradientUnits="userSpaceOnUse" x1="888.5" y1="73" x2="888.5" y2="41">
			<stop  offset="0" style="stop-color:#FFFFFF;stop-opacity:0"/>
			<stop  offset="1" style="stop-color:#262626"/>
		</linearGradient>
		<rect x="836" y="41" fill="url(#SVGID_33_)" width="105" height="32"/>
		<linearGradient id="SVGID_34_" gradientUnits="userSpaceOnUse" x1="888.5" y1="73" x2="888.5" y2="41">
			<stop  offset="0" style="stop-color:#FFFFFF;stop-opacity:0"/>
			<stop  offset="1" style="stop-color:#404040"/>
		</linearGradient>
		<path fill="url(#SVGID_34_)" d="M939,43v28H838V43H939 M941,41H836v32h105V41L941,41z"/>
	</g>
</g>
<g id="Black_Key_F_x23_">
	<g id="background_x2B_bevel_3_">
		<path fill="#0F0F0F" d="M1041,462.883c0,8.349-5.373,15.117-12,15.117h-76c-6.627,0-12-6.769-12-15.117V41h100V462.883z"/>
		<linearGradient id="SVGID_35_" gradientUnits="userSpaceOnUse" x1="991.0005" y1="478" x2="991.0005" y2="41.0005">
			<stop  offset="0" style="stop-color:#4B4B4B"/>
			<stop  offset="1" style="stop-color:#0F0F0F"/>
		</linearGradient>
		<path fill="url(#SVGID_35_)" d="M1039,43v419.883c0,7.232-4.486,13.117-10,13.117h-76c-5.514,0-10-5.885-10-13.117V43H1039
			 M1041,41H941v421.883c0,8.349,5.373,15.117,12,15.117h76c6.627,0,12-6.769,12-15.117V41L1041,41z"/>
	</g>
	<linearGradient id="front_side_9_" gradientUnits="userSpaceOnUse" x1="991.0005" y1="466" x2="991.0005" y2="411">
		<stop  offset="0" style="stop-color:#4B4B4B"/>
		<stop  offset="0.3" style="stop-color:#2D2D2D"/>
		<stop  offset="0.4357" style="stop-color:#363636"/>
		<stop  offset="0.6569" style="stop-color:#4E4E4E"/>
		<stop  offset="0.9346" style="stop-color:#767676"/>
		<stop  offset="1" style="stop-color:#808080"/>
	</linearGradient>
	<path id="front_side_5_" fill="url(#front_side_9_)" d="M1011.43,411c6.692,0,11.325,5.232,12,12c1.239,12.433,2.36,24.985,3,33
		c0.561,7.016-0.308,10-7,10H962.57c-6.692,0-7.56-2.984-7-10c0.64-8.015,1.761-20.567,3-33c0.675-6.768,5.308-12,12-12H1011.43z"/>
	<g id="rim_stroke_3_">
		<linearGradient id="SVGID_36_" gradientUnits="userSpaceOnUse" x1="990.9995" y1="44" x2="990.9995" y2="471.2251">
			<stop  offset="0" style="stop-color:#323232;stop-opacity:0"/>
			<stop  offset="0.0069" style="stop-color:#323232;stop-opacity:0.1375"/>
			<stop  offset="0.05" style="stop-color:#323232"/>
			<stop  offset="1" style="stop-color:#3C3C3C"/>
		</linearGradient>
		<path fill="url(#SVGID_36_)" d="M1033.5,46v410.375c0,7.097-4.566,12.85-10.2,12.85h-64.6c-5.633,0-10.2-5.753-10.2-12.85V46
			H1033.5 M1035.5,44h-2h-85h-2v2v410.375c0,8.188,5.473,14.85,12.2,14.85h64.6c6.728,0,12.2-6.661,12.2-14.85V46V44L1035.5,44z"/>
	</g>
	<g id="top_side_4_">
		<linearGradient id="SVGID_37_" gradientUnits="userSpaceOnUse" x1="991.0005" y1="405" x2="991.0005" y2="44.0005">
			<stop  offset="0" style="stop-color:#808080"/>
			<stop  offset="1" style="stop-color:#323232"/>
		</linearGradient>
		<path fill="url(#SVGID_37_)" d="M1028.5,392.77c0,6.755-5.475,12.23-12.229,12.23h-50.541c-6.754,0-12.229-5.476-12.229-12.23V44
			h75V392.77z"/>
		<linearGradient id="SVGID_38_" gradientUnits="userSpaceOnUse" x1="991.0005" y1="405" x2="991.0005" y2="44.0005">
			<stop  offset="0" style="stop-color:#646464"/>
			<stop  offset="1" style="stop-color:#414141"/>
		</linearGradient>
		<path fill="url(#SVGID_38_)" d="M1026.5,46v346.77c0,5.641-4.589,10.23-10.229,10.23h-50.541c-5.641,0-10.229-4.589-10.229-10.23
			V46H1026.5 M1028.5,44h-75v348.77c0,6.755,5.475,12.23,12.229,12.23h50.541c6.755,0,12.229-5.476,12.229-12.23V44L1028.5,44z"/>
	</g>
	<polygon id="corner_right_5_" fill="#505050" points="960.5,410.25 955.5,414.667 955.5,403.5 960.5,406.75 	"/>
	<polygon id="corner_left_5_" fill="#505050" points="1021.5,410.25 1026.5,414.667 1026.5,403.5 1021.5,406.75 	"/>
</g>
<g id="Black_Key_G_x23_">
	<g id="background_x2B_bevel_6_">
		<path fill="#0F0F0F" d="M1214,462.883c0,8.349-5.373,15.117-12,15.117h-76c-6.627,0-12-6.769-12-15.117V41h100V462.883z"/>
		<linearGradient id="SVGID_39_" gradientUnits="userSpaceOnUse" x1="1164" y1="478" x2="1164" y2="41.0005">
			<stop  offset="0" style="stop-color:#4B4B4B"/>
			<stop  offset="1" style="stop-color:#0F0F0F"/>
		</linearGradient>
		<path fill="url(#SVGID_39_)" d="M1212,43v419.883c0,7.232-4.486,13.117-10,13.117h-76c-5.514,0-10-5.885-10-13.117V43H1212
			 M1214,41h-100v421.883c0,8.349,5.373,15.117,12,15.117h76c6.627,0,12-6.769,12-15.117V41L1214,41z"/>
	</g>
	<linearGradient id="front_side_10_" gradientUnits="userSpaceOnUse" x1="1164" y1="466" x2="1164" y2="411">
		<stop  offset="0" style="stop-color:#4B4B4B"/>
		<stop  offset="0.3" style="stop-color:#2D2D2D"/>
		<stop  offset="0.4357" style="stop-color:#363636"/>
		<stop  offset="0.6569" style="stop-color:#4E4E4E"/>
		<stop  offset="0.9346" style="stop-color:#767676"/>
		<stop  offset="1" style="stop-color:#808080"/>
	</linearGradient>
	<path id="front_side_7_" fill="url(#front_side_10_)" d="M1184.43,411c6.692,0,11.325,5.232,12,12c1.239,12.433,2.36,24.985,3,33
		c0.561,7.016-0.308,10-7,10h-56.859c-6.692,0-7.561-2.984-7-10c0.64-8.015,1.761-20.567,3-33c0.675-6.768,5.308-12,12-12H1184.43z"
		/>
	<g id="rim_stroke_6_">
		<linearGradient id="SVGID_40_" gradientUnits="userSpaceOnUse" x1="1164" y1="44" x2="1164" y2="471.2251">
			<stop  offset="0" style="stop-color:#323232;stop-opacity:0"/>
			<stop  offset="0.0069" style="stop-color:#323232;stop-opacity:0.1375"/>
			<stop  offset="0.05" style="stop-color:#323232"/>
			<stop  offset="1" style="stop-color:#3C3C3C"/>
		</linearGradient>
		<path fill="url(#SVGID_40_)" d="M1206.5,46v410.375c0,7.097-4.566,12.85-10.2,12.85h-64.6c-5.634,0-10.2-5.753-10.2-12.85V46
			H1206.5 M1208.5,44h-2h-85h-2v2v410.375c0,8.188,5.473,14.85,12.2,14.85h64.6c6.728,0,12.2-6.661,12.2-14.85V46V44L1208.5,44z"/>
	</g>
	<g id="top_side_11_">
		<linearGradient id="SVGID_41_" gradientUnits="userSpaceOnUse" x1="1164" y1="405" x2="1164" y2="44.0005">
			<stop  offset="0" style="stop-color:#808080"/>
			<stop  offset="1" style="stop-color:#323232"/>
		</linearGradient>
		<path fill="url(#SVGID_41_)" d="M1201.5,392.77c0,6.755-5.475,12.23-12.229,12.23h-50.541c-6.755,0-12.229-5.476-12.229-12.23V44
			h75V392.77z"/>
		<linearGradient id="SVGID_42_" gradientUnits="userSpaceOnUse" x1="1164" y1="405" x2="1164" y2="44.0005">
			<stop  offset="0" style="stop-color:#646464"/>
			<stop  offset="1" style="stop-color:#414141"/>
		</linearGradient>
		<path fill="url(#SVGID_42_)" d="M1199.5,46v346.77c0,5.641-4.589,10.23-10.229,10.23h-50.541c-5.641,0-10.229-4.589-10.229-10.23
			V46H1199.5 M1201.5,44h-75v348.77c0,6.755,5.475,12.23,12.229,12.23h50.541c6.755,0,12.229-5.476,12.229-12.23V44L1201.5,44z"/>
	</g>
	<polygon id="corner_right_6_" fill="#505050" points="1133.5,410.25 1128.5,414.667 1128.5,403.5 1133.5,406.75 	"/>
	<polygon id="corner_left_6_" fill="#505050" points="1194.5,410.25 1199.5,414.667 1199.5,403.5 1194.5,406.75 	"/>
</g>
</svg>
