<svg id="Keyboard" xmlns="http://www.w3.org/2000/svg" xmlns:xlink="http://www.w3.org/1999/xlink" viewBox="0 0 2000 800">
  <defs>
    <linearGradient id="linear-gradient" x1="421" y1="762" x2="421" y2="41" gradientUnits="userSpaceOnUse">
      <stop offset="0" stop-color="#ebebeb"/>
      <stop offset="1" stop-color="#fff"/>
    </linearGradient>
    <linearGradient id="linear-gradient-2" x1="421" y1="762" x2="421" y2="41" gradientUnits="userSpaceOnUse">
      <stop offset="0" stop-color="#b4b4b4"/>
      <stop offset="1" stop-color="#f0f0f0"/>
    </linearGradient>
    <linearGradient id="linear-gradient-3" x1="393.5" y1="73" x2="393.5" y2="41" gradientUnits="userSpaceOnUse">
      <stop offset="0" stop-color="#fff" stop-opacity="0"/>
      <stop offset="1" stop-color="#262626"/>
    </linearGradient>
    <linearGradient id="linear-gradient-4" x1="393.5" y1="73" x2="393.5" y2="41" gradientUnits="userSpaceOnUse">
      <stop offset="0" stop-color="#fff" stop-opacity="0"/>
      <stop offset="1" stop-color="#404040"/>
    </linearGradient>
    <linearGradient id="linear-gradient-5" x1="496" y1="478" x2="496" y2="41" gradientUnits="userSpaceOnUse">
      <stop offset="0" stop-color="#4b4b4b"/>
      <stop offset="1" stop-color="#0f0f0f"/>
    </linearGradient>
    <linearGradient id="linear-gradient-6" x1="496" y1="471.95" x2="496" y2="438" gradientUnits="userSpaceOnUse">
      <stop offset="0" stop-color="#1e1e1e"/>
      <stop offset="0.65" stop-color="#464646"/>
      <stop offset="1" stop-color="#323232"/>
    </linearGradient>
    <linearGradient id="linear-gradient-7" x1="496" y1="471.95" x2="496" y2="438" gradientUnits="userSpaceOnUse">
      <stop offset="0" stop-color="#1e1e1e" stop-opacity="0"/>
      <stop offset="0.7" stop-color="#1f1f1f" stop-opacity="0"/>
      <stop offset="0.825" stop-color="#202020" stop-opacity="0.024"/>
      <stop offset="0.878" stop-color="#252525" stop-opacity="0.109"/>
      <stop offset="0.918" stop-color="#2d2d2d" stop-opacity="0.255"/>
      <stop offset="0.95" stop-color="#383838" stop-opacity="0.463"/>
      <stop offset="0.979" stop-color="#464646" stop-opacity="0.731"/>
      <stop offset="1" stop-color="#555"/>
    </linearGradient>
    <linearGradient id="linear-gradient-8" x1="496" y1="44" x2="496" y2="473.225" gradientUnits="userSpaceOnUse">
      <stop offset="0" stop-color="#323232" stop-opacity="0"/>
      <stop offset="0.002" stop-color="#323232" stop-opacity="0.093"/>
      <stop offset="0.01" stop-color="#323232" stop-opacity="0.496"/>
      <stop offset="0.019" stop-color="#323232" stop-opacity="0.782"/>
      <stop offset="0.031" stop-color="#323232" stop-opacity="0.949"/>
      <stop offset="0.05" stop-color="#323232"/>
      <stop offset="1" stop-color="#3c3c3c"/>
    </linearGradient>
    <linearGradient id="linear-gradient-9" x1="496" y1="432" x2="496" y2="48" gradientUnits="userSpaceOnUse">
      <stop offset="0" stop-color="#4b4b4b"/>
      <stop offset="1" stop-color="#323232"/>
    </linearGradient>
    <linearGradient id="linear-gradient-10" x1="496" y1="432" x2="496" y2="48" gradientUnits="userSpaceOnUse">
      <stop offset="0" stop-color="#323232"/>
      <stop offset="0.1" stop-color="#5a5a5a"/>
      <stop offset="1" stop-color="#4b4b4b"/>
    </linearGradient>
    <linearGradient id="linear-gradient-11" x1="616" x2="616" y2="41" gradientTransform="matrix(-1, 0, 0, 1, 1202, 0)" xlink:href="#linear-gradient"/>
    <linearGradient id="linear-gradient-12" x1="586" x2="586" y2="41" xlink:href="#linear-gradient-2"/>
    <linearGradient id="linear-gradient-13" x1="586" x2="586" xlink:href="#linear-gradient-3"/>
    <linearGradient id="linear-gradient-14" x1="586" x2="586" xlink:href="#linear-gradient-4"/>
    <linearGradient id="linear-gradient-15" x1="676" x2="676" y2="41" xlink:href="#linear-gradient-5"/>
    <linearGradient id="linear-gradient-16" x1="676" y1="466" x2="676" y2="411" gradientUnits="userSpaceOnUse">
      <stop offset="0" stop-color="#4b4b4b"/>
      <stop offset="0.3" stop-color="#2d2d2d"/>
      <stop offset="0.436" stop-color="#363636"/>
      <stop offset="0.657" stop-color="#4e4e4e"/>
      <stop offset="0.935" stop-color="#767676"/>
      <stop offset="1" stop-color="gray"/>
    </linearGradient>
    <linearGradient id="linear-gradient-17" x1="676" x2="676" y2="471.225" xlink:href="#linear-gradient-8"/>
    <linearGradient id="linear-gradient-18" x1="676" y1="405" x2="676" y2="44" gradientUnits="userSpaceOnUse">
      <stop offset="0" stop-color="gray"/>
      <stop offset="1" stop-color="#323232"/>
    </linearGradient>
    <linearGradient id="linear-gradient-19" x1="676" y1="405" x2="676" y2="44" gradientUnits="userSpaceOnUse">
      <stop offset="0" stop-color="#646464"/>
      <stop offset="1" stop-color="#414141"/>
    </linearGradient>
    <linearGradient id="linear-gradient-20" x1="451" x2="451" y2="41" gradientTransform="matrix(-1, 0, 0, 1, 1202, 0)" xlink:href="#linear-gradient"/>
    <linearGradient id="linear-gradient-21" x1="751" x2="751" y2="41" xlink:href="#linear-gradient-2"/>
    <linearGradient id="linear-gradient-22" x1="423.5" x2="423.5" gradientTransform="matrix(-1, 0, 0, 1, 1202, 0)" xlink:href="#linear-gradient-3"/>
    <linearGradient id="linear-gradient-23" x1="778.5" x2="778.5" xlink:href="#linear-gradient-4"/>
    <linearGradient id="linear-gradient-24" x1="916" x2="916" y2="41" xlink:href="#linear-gradient"/>
    <linearGradient id="linear-gradient-25" x1="916" x2="916" y2="41" xlink:href="#linear-gradient-2"/>
    <linearGradient id="linear-gradient-26" x1="888.5" x2="888.5" xlink:href="#linear-gradient-3"/>
    <linearGradient id="linear-gradient-27" x1="888.5" x2="888.5" xlink:href="#linear-gradient-4"/>
    <linearGradient id="linear-gradient-28" x1="991" x2="991" y2="41" xlink:href="#linear-gradient-5"/>
    <linearGradient id="linear-gradient-29" x1="991" x2="991" xlink:href="#linear-gradient-16"/>
    <linearGradient id="linear-gradient-30" x1="991" x2="991" y2="471.225" xlink:href="#linear-gradient-8"/>
    <linearGradient id="linear-gradient-31" x1="991" x2="991" y2="44" xlink:href="#linear-gradient-18"/>
    <linearGradient id="linear-gradient-32" x1="991" x2="991" y2="44" xlink:href="#linear-gradient-19"/>
    <linearGradient id="linear-gradient-33" x1="121" x2="121" y2="41" gradientTransform="matrix(-1, 0, 0, 1, 1202, 0)" xlink:href="#linear-gradient"/>
    <linearGradient id="linear-gradient-34" x1="1081" x2="1081" y2="41" xlink:href="#linear-gradient-2"/>
    <linearGradient id="linear-gradient-35" x1="1077.5" x2="1077.5" xlink:href="#linear-gradient-3"/>
    <linearGradient id="linear-gradient-36" x1="1077.5" x2="1077.5" xlink:href="#linear-gradient-4"/>
    <linearGradient id="linear-gradient-37" x1="1164" x2="1164" y2="41" xlink:href="#linear-gradient-5"/>
    <linearGradient id="linear-gradient-38" x1="1164" x2="1164" xlink:href="#linear-gradient-16"/>
    <linearGradient id="linear-gradient-39" x1="1164" x2="1164" y2="471.225" xlink:href="#linear-gradient-8"/>
    <linearGradient id="linear-gradient-40" x1="1164" x2="1164" y2="44" xlink:href="#linear-gradient-18"/>
    <linearGradient id="linear-gradient-41" x1="1164" x2="1164" y2="44" xlink:href="#linear-gradient-19"/>
    <linearGradient id="linear-gradient-42" x1="286" x2="286" y2="41" gradientTransform="translate(960)" xlink:href="#linear-gradient"/>
    <linearGradient id="linear-gradient-43" x1="1246" x2="1246" y2="41" xlink:href="#linear-gradient-2"/>
    <linearGradient id="linear-gradient-44" x1="912" x2="912" gradientTransform="matrix(-1, 0, 0, 1, 2162, 0)" xlink:href="#linear-gradient-3"/>
    <linearGradient id="linear-gradient-45" x1="1250" x2="1250" xlink:href="#linear-gradient-4"/>
    <linearGradient id="linear-gradient-46" x1="1336" x2="1336" y2="41" xlink:href="#linear-gradient-5"/>
    <linearGradient id="linear-gradient-47" x1="1336" x2="1336" xlink:href="#linear-gradient-16"/>
    <linearGradient id="linear-gradient-48" x1="1336" x2="1336" y2="471.225" xlink:href="#linear-gradient-8"/>
    <linearGradient id="linear-gradient-49" x1="1336" x2="1336" y2="44" xlink:href="#linear-gradient-18"/>
    <linearGradient id="linear-gradient-50" x1="1336" x2="1336" y2="44" xlink:href="#linear-gradient-19"/>
    <linearGradient id="linear-gradient-51" x1="-209" x2="-209" y2="41" gradientTransform="matrix(-1, 0, 0, 1, 1202, 0)" xlink:href="#linear-gradient"/>
    <linearGradient id="linear-gradient-52" x1="1411" x2="1411" y2="41" xlink:href="#linear-gradient-2"/>
    <linearGradient id="linear-gradient-53" x1="-236.5" x2="-236.5" gradientTransform="matrix(-1, 0, 0, 1, 1202, 0)" xlink:href="#linear-gradient-3"/>
    <linearGradient id="linear-gradient-54" x1="1438.5" x2="1438.5" xlink:href="#linear-gradient-4"/>
  </defs>
  <title>piano keys 6e</title>
  <g id="White_Key_C" data-name="White Key C">
    <g id="white_key_2" data-name="white key 2">
      <path d="M341,41V740a22,22,0,0,0,22,22H479a22,22,0,0,0,22-22V484.5a6.5,6.5,0,0,0-6.5-6.5H458c-6.627,0-12-6.769-12-15.117V41Z" fill="url(#linear-gradient)"/>
      <path d="M444,43V462.883c0,9.438,6.28,17.117,14,17.117h36.5a4.505,4.505,0,0,1,4.5,4.5V740a20.023,20.023,0,0,1-20,20H363a20.023,20.023,0,0,1-20-20V43H444m2-2H341V740a22,22,0,0,0,22,22H479a22,22,0,0,0,22-22V484.5a6.5,6.5,0,0,0-6.5-6.5H458c-6.627,0-12-6.769-12-15.117V41Z" fill="url(#linear-gradient-2)"/>
    </g>
    <g id="top_shadow" data-name="top shadow">
      <rect x="341" y="41" width="105" height="32" fill="url(#linear-gradient-3)"/>
      <path d="M444,43V71H343V43H444m2-2H341V73H446V41Z" fill="url(#linear-gradient-4)"/>
    </g>
  </g>
  <g id="Black_Key_C_Pressed" data-name="Black Key C# Pressed">
    <g id="background_bevel" data-name="background+bevel">
      <path d="M546,462.883c0,8.348-5.373,15.117-12,15.117H458c-6.627,0-12-6.769-12-15.117V41H546Z" fill="#0f0f0f"/>
      <path d="M544,43V462.883c0,7.232-4.486,13.117-10,13.117H458c-5.514,0-10-5.885-10-13.117V43h96m2-2H446V462.883c0,8.348,5.373,15.117,12,15.117h76c6.627,0,12-6.769,12-15.117V41Z" fill="url(#linear-gradient-5)"/>
    </g>
    <g id="front_side" data-name="front side">
      <path d="M516.43,438c6.692,0,11.325,5.232,12,12,.722,7.251,1.975,21.95,1.975,21.95H461.6s1.253-14.7,1.975-21.95c.675-6.768,5.308-12,12-12Z" fill="url(#linear-gradient-6)"/>
      <path d="M516.43,440c5.379,0,9.4,4.1,10.009,10.2.548,5.492,1.411,15.386,1.787,19.752H463.774c.376-4.366,1.239-14.259,1.786-19.752.608-6.1,4.631-10.2,10.01-10.2h40.86m0-2H475.57c-6.692,0-11.325,5.232-12,12-.722,7.251-1.975,21.95-1.975,21.95h68.81s-1.253-14.7-1.975-21.95c-.675-6.768-5.308-12-12-12Z" fill="url(#linear-gradient-7)"/>
    </g>
    <g id="rim_stroke" data-name="rim stroke">
      <path d="M538.5,46V458.375c0,7.1-4.567,12.85-10.2,12.85H463.7c-5.633,0-10.2-5.753-10.2-12.85V46h85m2-2h-89V458.375c0,8.189,5.473,14.85,12.2,14.85h64.6c6.727,0,12.2-6.661,12.2-14.85V44Z" fill="url(#linear-gradient-8)"/>
    </g>
    <g id="top_side" data-name="top side">
      <path d="M533.5,419.77A12.23,12.23,0,0,1,521.27,432H470.729A12.23,12.23,0,0,1,458.5,419.77V48h75Z" fill="url(#linear-gradient-9)"/>
      <path d="M531.5,50V419.77A10.242,10.242,0,0,1,521.27,430H470.729A10.242,10.242,0,0,1,460.5,419.77V50h71m2-2h-75V419.77A12.23,12.23,0,0,0,470.729,432H521.27a12.23,12.23,0,0,0,12.23-12.23V48Z" fill="url(#linear-gradient-10)"/>
    </g>
    <polygon id="corner_right" data-name="corner right" points="466 438.149 461 442.501 461 431.5 466 434.701 466 438.149" fill="#414141"/>
    <polygon id="corner_left" data-name="corner left" points="526 438.147 530.999 442.498 531 431.497 526 434.699 526 438.147" fill="#414141"/>
  </g>
  <g id="White_Key_D" data-name="White Key D">
    <g id="white_key_2-2" data-name="white key 2">
      <path d="M528,762a22,22,0,0,1-22-22V484.5a6.5,6.5,0,0,1,6.5-6.5H534c6.627,0,12-6.769,12-15.117V41h80V462.883c0,8.348,5.373,15.117,12,15.117h21.5a6.5,6.5,0,0,1,6.5,6.5V740a22,22,0,0,1-22,22Z" fill="url(#linear-gradient-11)"/>
      <path d="M624,43V462.883c0,9.438,6.28,17.117,14,17.117h21.5a4.505,4.505,0,0,1,4.5,4.5V740a20.023,20.023,0,0,1-20,20H528a20.023,20.023,0,0,1-20-20V484.5a4.505,4.505,0,0,1,4.5-4.5H534c7.72,0,14-7.679,14-17.117V43h76m2-2H546V462.883c0,8.348-5.373,15.117-12,15.117H512.5a6.5,6.5,0,0,0-6.5,6.5V740a22,22,0,0,0,22,22H644a22,22,0,0,0,22-22V484.5a6.5,6.5,0,0,0-6.5-6.5H638c-6.627,0-12-6.769-12-15.117V41Z" fill="url(#linear-gradient-12)"/>
    </g>
    <g id="top_shadow-2" data-name="top shadow">
      <rect x="546" y="41" width="80" height="32" fill="url(#linear-gradient-13)"/>
      <path d="M624,43V71H548V43h76m2-2H546V73h80V41Z" fill="url(#linear-gradient-14)"/>
    </g>
  </g>
  <g id="Black_Key_D_" data-name="Black Key D#">
    <g id="background_bevel-2" data-name="background+bevel">
      <path d="M726,462.883c0,8.348-5.373,15.117-12,15.117H638c-6.627,0-12-6.769-12-15.117V41H726Z" fill="#0f0f0f"/>
      <path d="M724,43V462.883c0,7.232-4.486,13.117-10,13.117H638c-5.514,0-10-5.885-10-13.117V43h96m2-2H626V462.883c0,8.348,5.373,15.117,12,15.117h76c6.627,0,12-6.769,12-15.117V41Z" fill="url(#linear-gradient-15)"/>
    </g>
    <path id="front_side-2" data-name="front side" d="M696.43,411c6.692,0,11.325,5.232,12,12,1.239,12.433,2.36,24.985,3,33,.56,7.016-.308,10-7,10H647.57c-6.692,0-7.56-2.984-7-10,.64-8.015,1.761-20.567,3-33,.675-6.768,5.308-12,12-12Z" fill="url(#linear-gradient-16)"/>
    <g id="rim_stroke-2" data-name="rim stroke">
      <path d="M718.5,46V456.375c0,7.1-4.567,12.85-10.2,12.85H643.7c-5.633,0-10.2-5.753-10.2-12.85V46h85m2-2h-89V456.375c0,8.189,5.473,14.85,12.2,14.85h64.6c6.727,0,12.2-6.661,12.2-14.85V44Z" fill="url(#linear-gradient-17)"/>
    </g>
    <g id="top_side-2" data-name="top side">
      <path d="M713.5,392.77A12.23,12.23,0,0,1,701.27,405H650.729A12.23,12.23,0,0,1,638.5,392.77V44h75Z" fill="url(#linear-gradient-18)"/>
      <path d="M711.5,46V392.77A10.241,10.241,0,0,1,701.27,403H650.729A10.241,10.241,0,0,1,640.5,392.77V46h71m2-2h-75V392.77A12.23,12.23,0,0,0,650.729,405H701.27a12.23,12.23,0,0,0,12.23-12.23V44Z" fill="url(#linear-gradient-19)"/>
    </g>
    <polygon id="corner_right-2" data-name="corner right" points="645.5 410.25 640.5 414.667 640.5 403.5 645.5 406.75 645.5 410.25" fill="#505050"/>
    <polygon id="corner_left-2" data-name="corner left" points="706.5 410.25 711.5 414.667 711.5 403.5 706.5 406.75 706.5 410.25" fill="#505050"/>
  </g>
  <g id="White_Key_E" data-name="White Key E">
    <g id="white_key_2-3" data-name="white key 2">
      <path d="M831,41V740a22,22,0,0,1-22,22H693a22,22,0,0,1-22-22V484.5a6.5,6.5,0,0,1,6.5-6.5H714c6.627,0,12-6.769,12-15.117V41Z" fill="url(#linear-gradient-20)"/>
      <path d="M829,43V740a20.023,20.023,0,0,1-20,20H693a20.023,20.023,0,0,1-20-20V484.5a4.505,4.505,0,0,1,4.5-4.5H714c7.72,0,14-7.679,14-17.117V43H829m2-2H726V462.883c0,8.348-5.373,15.117-12,15.117H677.5a6.5,6.5,0,0,0-6.5,6.5V740a22,22,0,0,0,22,22H809a22,22,0,0,0,22-22V41Z" fill="url(#linear-gradient-21)"/>
    </g>
    <g id="top_shadow-3" data-name="top shadow">
      <rect x="726" y="41" width="105" height="32" fill="url(#linear-gradient-22)"/>
      <path d="M829,43V71H728V43H829m2-2H726V73H831V41Z" fill="url(#linear-gradient-23)"/>
    </g>
  </g>
  <g id="White_Key_F" data-name="White Key F">
    <g id="white_key_2-4" data-name="white key 2">
      <path d="M836,41V740a22,22,0,0,0,22,22H974a22,22,0,0,0,22-22V484.5a6.5,6.5,0,0,0-6.5-6.5H953c-6.627,0-12-6.769-12-15.117V41Z" fill="url(#linear-gradient-24)"/>
      <path d="M939,43V462.883c0,9.438,6.28,17.117,14,17.117h36.5a4.505,4.505,0,0,1,4.5,4.5V740a20.023,20.023,0,0,1-20,20H858a20.023,20.023,0,0,1-20-20V43H939m2-2H836V740a22,22,0,0,0,22,22H974a22,22,0,0,0,22-22V484.5a6.5,6.5,0,0,0-6.5-6.5H953c-6.627,0-12-6.769-12-15.117V41Z" fill="url(#linear-gradient-25)"/>
    </g>
    <g id="top_shadow-4" data-name="top shadow">
      <rect x="836" y="41" width="105" height="32" fill="url(#linear-gradient-26)"/>
      <path d="M939,43V71H838V43H939m2-2H836V73H941V41Z" fill="url(#linear-gradient-27)"/>
    </g>
  </g>
  <g id="Black_Key_F_" data-name="Black Key F#">
    <g id="background_bevel-3" data-name="background+bevel">
      <path d="M1041,462.883c0,8.348-5.373,15.117-12,15.117H953c-6.627,0-12-6.769-12-15.117V41h100Z" fill="#0f0f0f"/>
      <path d="M1039,43V462.883c0,7.232-4.486,13.117-10,13.117H953c-5.514,0-10-5.885-10-13.117V43h96m2-2H941V462.883c0,8.348,5.373,15.117,12,15.117h76c6.627,0,12-6.769,12-15.117V41Z" fill="url(#linear-gradient-28)"/>
    </g>
    <path id="front_side-3" data-name="front side" d="M1011.43,411c6.692,0,11.325,5.232,12,12,1.239,12.433,2.36,24.985,3,33,.56,7.016-.308,10-7,10H962.57c-6.692,0-7.56-2.984-7-10,.64-8.015,1.761-20.567,3-33,.675-6.768,5.308-12,12-12Z" fill="url(#linear-gradient-29)"/>
    <g id="rim_stroke-3" data-name="rim stroke">
      <path d="M1033.5,46V456.375c0,7.1-4.567,12.85-10.2,12.85H958.7c-5.633,0-10.2-5.753-10.2-12.85V46h85m2-2h-89V456.375c0,8.189,5.473,14.85,12.2,14.85h64.6c6.727,0,12.2-6.661,12.2-14.85V44Z" fill="url(#linear-gradient-30)"/>
    </g>
    <g id="top_side-3" data-name="top side">
      <path d="M1028.5,392.77A12.23,12.23,0,0,1,1016.27,405H965.729A12.23,12.23,0,0,1,953.5,392.77V44h75Z" fill="url(#linear-gradient-31)"/>
      <path d="M1026.5,46V392.77A10.241,10.241,0,0,1,1016.27,403H965.729A10.241,10.241,0,0,1,955.5,392.77V46h71m2-2h-75V392.77A12.23,12.23,0,0,0,965.729,405h50.541a12.23,12.23,0,0,0,12.23-12.23V44Z" fill="url(#linear-gradient-32)"/>
    </g>
    <polygon id="corner_right-3" data-name="corner right" points="960.5 410.25 955.5 414.667 955.5 403.5 960.5 406.75 960.5 410.25" fill="#505050"/>
    <polygon id="corner_left-3" data-name="corner left" points="1021.5 410.25 1026.5 414.667 1026.5 403.5 1021.5 406.75 1021.5 410.25" fill="#505050"/>
  </g>
  <g id="White_Key_G" data-name="White Key G">
    <g id="white_key_2-5" data-name="white key 2">
      <path d="M1023,762a22,22,0,0,1-22-22V484.5a6.5,6.5,0,0,1,6.5-6.5H1029c6.627,0,12-6.769,12-15.117V41h73V462.883c0,8.348,5.373,15.117,12,15.117h28.5a6.5,6.5,0,0,1,6.5,6.5V740a22,22,0,0,1-22,22Z" fill="url(#linear-gradient-33)"/>
      <path d="M1112,43V462.883c0,9.438,6.28,17.117,14,17.117h28.5a4.505,4.505,0,0,1,4.5,4.5V740a20.023,20.023,0,0,1-20,20H1023a20.023,20.023,0,0,1-20-20V484.5a4.505,4.505,0,0,1,4.5-4.5H1029c7.72,0,14-7.679,14-17.117V43h69m2-2h-73V462.883c0,8.348-5.373,15.117-12,15.117h-21.5a6.5,6.5,0,0,0-6.5,6.5V740a22,22,0,0,0,22,22h116a22,22,0,0,0,22-22V484.5a6.5,6.5,0,0,0-6.5-6.5H1126c-6.627,0-12-6.769-12-15.117V41Z" fill="url(#linear-gradient-34)"/>
    </g>
    <g id="top_shadow-5" data-name="top shadow">
      <rect x="1041" y="41" width="73" height="32" fill="url(#linear-gradient-35)"/>
      <path d="M1112,43V71h-69V43h69m2-2h-73V73h73V41Z" fill="url(#linear-gradient-36)"/>
    </g>
  </g>
  <g id="Black_Key_G_" data-name="Black Key G#">
    <g id="background_bevel-4" data-name="background+bevel">
      <path d="M1214,462.883c0,8.348-5.373,15.117-12,15.117h-76c-6.627,0-12-6.769-12-15.117V41h100Z" fill="#0f0f0f"/>
      <path d="M1212,43V462.883c0,7.232-4.486,13.117-10,13.117h-76c-5.514,0-10-5.885-10-13.117V43h96m2-2H1114V462.883c0,8.348,5.373,15.117,12,15.117h76c6.627,0,12-6.769,12-15.117V41Z" fill="url(#linear-gradient-37)"/>
    </g>
    <path id="front_side-4" data-name="front side" d="M1184.43,411c6.692,0,11.325,5.232,12,12,1.239,12.433,2.36,24.985,3,33,.56,7.016-.308,10-7,10h-56.86c-6.692,0-7.56-2.984-7-10,.64-8.015,1.761-20.567,3-33,.675-6.768,5.308-12,12-12Z" fill="url(#linear-gradient-38)"/>
    <g id="rim_stroke-4" data-name="rim stroke">
      <path d="M1206.5,46V456.375c0,7.1-4.567,12.85-10.2,12.85h-64.6c-5.633,0-10.2-5.753-10.2-12.85V46h85m2-2h-89V456.375c0,8.189,5.473,14.85,12.2,14.85h64.6c6.727,0,12.2-6.661,12.2-14.85V44Z" fill="url(#linear-gradient-39)"/>
    </g>
    <g id="top_side-4" data-name="top side">
      <path d="M1201.5,392.77A12.23,12.23,0,0,1,1189.27,405h-50.541a12.23,12.23,0,0,1-12.229-12.23V44h75Z" fill="url(#linear-gradient-40)"/>
      <path d="M1199.5,46V392.77A10.241,10.241,0,0,1,1189.27,403h-50.541a10.241,10.241,0,0,1-10.229-10.23V46h71m2-2h-75V392.77A12.23,12.23,0,0,0,1138.729,405h50.541a12.23,12.23,0,0,0,12.23-12.23V44Z" fill="url(#linear-gradient-41)"/>
    </g>
    <polygon id="corner_right-4" data-name="corner right" points="1133.5 410.25 1128.5 414.667 1128.5 403.5 1133.5 406.75 1133.5 410.25" fill="#505050"/>
    <polygon id="corner_left-4" data-name="corner left" points="1194.5 410.25 1199.5 414.667 1199.5 403.5 1194.5 406.75 1194.5 410.25" fill="#505050"/>
  </g>
  <g id="White_Key_A" data-name="White Key A">
    <g id="white_key_2-6" data-name="white key 2">
      <path d="M1304,762a22,22,0,0,0,22-22V484.5a6.5,6.5,0,0,0-6.5-6.5H1298c-6.627,0-12-6.769-12-15.117V41h-72V462.883c0,8.348-5.373,15.117-12,15.117h-29.5a6.5,6.5,0,0,0-6.5,6.5V740a22,22,0,0,0,22,22Z" fill="url(#linear-gradient-42)"/>
      <path d="M1284,43V462.883c0,9.438,6.28,17.117,14,17.117h21.5a4.505,4.505,0,0,1,4.5,4.5V740a20.023,20.023,0,0,1-20,20H1188a20.023,20.023,0,0,1-20-20V484.5a4.505,4.505,0,0,1,4.5-4.5H1202c7.72,0,14-7.679,14-17.117V43h68m2-2h-72V462.883c0,8.348-5.373,15.117-12,15.117h-29.5a6.5,6.5,0,0,0-6.5,6.5V740a22,22,0,0,0,22,22h116a22,22,0,0,0,22-22V484.5a6.5,6.5,0,0,0-6.5-6.5H1298c-6.627,0-12-6.769-12-15.117V41Z" fill="url(#linear-gradient-43)"/>
    </g>
    <g id="top_shadow-6" data-name="top shadow">
      <rect x="1214" y="41" width="72" height="32" fill="url(#linear-gradient-44)"/>
      <path d="M1284,43V71h-68V43h68m2-2h-72V73h72V41Z" fill="url(#linear-gradient-45)"/>
    </g>
  </g>
  <g id="Black_Key_Bb" data-name="Black Key Bb">
    <g id="background_bevel-5" data-name="background+bevel">
      <path d="M1386,462.883c0,8.348-5.373,15.117-12,15.117h-76c-6.627,0-12-6.769-12-15.117V41h100Z" fill="#0f0f0f"/>
      <path d="M1384,43V462.883c0,7.232-4.486,13.117-10,13.117h-76c-5.514,0-10-5.885-10-13.117V43h96m2-2H1286V462.883c0,8.348,5.373,15.117,12,15.117h76c6.627,0,12-6.769,12-15.117V41Z" fill="url(#linear-gradient-46)"/>
    </g>
    <path id="front_side-5" data-name="front side" d="M1356.43,411c6.692,0,11.325,5.232,12,12,1.239,12.433,2.36,24.985,3,33,.56,7.016-.308,10-7,10h-56.86c-6.692,0-7.56-2.984-7-10,.64-8.015,1.761-20.567,3-33,.675-6.768,5.308-12,12-12Z" fill="url(#linear-gradient-47)"/>
    <g id="rim_stroke-5" data-name="rim stroke">
      <path d="M1378.5,46V456.375c0,7.1-4.567,12.85-10.2,12.85h-64.6c-5.633,0-10.2-5.753-10.2-12.85V46h85m2-2h-89V456.375c0,8.189,5.473,14.85,12.2,14.85h64.6c6.727,0,12.2-6.661,12.2-14.85V44Z" fill="url(#linear-gradient-48)"/>
    </g>
    <g id="top_side-5" data-name="top side">
      <path d="M1373.5,392.77A12.23,12.23,0,0,1,1361.27,405h-50.541a12.23,12.23,0,0,1-12.229-12.23V44h75Z" fill="url(#linear-gradient-49)"/>
      <path d="M1371.5,46V392.77A10.241,10.241,0,0,1,1361.27,403h-50.541a10.241,10.241,0,0,1-10.229-10.23V46h71m2-2h-75V392.77A12.23,12.23,0,0,0,1310.729,405h50.541a12.23,12.23,0,0,0,12.23-12.23V44Z" fill="url(#linear-gradient-50)"/>
    </g>
    <polygon id="corner_right-5" data-name="corner right" points="1305.5 410.25 1300.5 414.667 1300.5 403.5 1305.5 406.75 1305.5 410.25" fill="#505050"/>
    <polygon id="corner_left-5" data-name="corner left" points="1366.5 410.25 1371.5 414.667 1371.5 403.5 1366.5 406.75 1366.5 410.25" fill="#505050"/>
  </g>
  <g id="White_Key_B" data-name="White Key B">
    <g id="white_key_2-7" data-name="white key 2">
      <path d="M1491,41V740a22,22,0,0,1-22,22H1353a22,22,0,0,1-22-22V484.5a6.5,6.5,0,0,1,6.5-6.5H1374c6.627,0,12-6.769,12-15.117V41Z" fill="url(#linear-gradient-51)"/>
      <path d="M1489,43V740a20.023,20.023,0,0,1-20,20H1353a20.023,20.023,0,0,1-20-20V484.5a4.505,4.505,0,0,1,4.5-4.5H1374c7.72,0,14-7.679,14-17.117V43h101m2-2H1386V462.883c0,8.348-5.373,15.117-12,15.117h-36.5a6.5,6.5,0,0,0-6.5,6.5V740a22,22,0,0,0,22,22h116a22,22,0,0,0,22-22V41Z" fill="url(#linear-gradient-52)"/>
    </g>
    <g id="top_shadow-7" data-name="top shadow">
      <rect x="1386" y="41" width="105" height="32" fill="url(#linear-gradient-53)"/>
      <path d="M1489,43V71H1388V43h101m2-2H1386V73h105V41Z" fill="url(#linear-gradient-54)"/>
    </g>
  </g>
</svg>
